<?xml version="1.0" standalone="no"?>
<!DOCTYPE svg PUBLIC "-//W3C//DTD SVG 20010904//EN"
 "http://www.w3.org/TR/2001/REC-SVG-20010904/DTD/svg10.dtd">
<svg version="1.0" xmlns="http://www.w3.org/2000/svg"
 width="400.000000pt" height="400.000000pt" viewBox="0 0 400.000000 400.000000"
 preserveAspectRatio="xMidYMid meet">
<metadata>
Created by potrace 1.14, written by Peter Selinger 2001-2017
</metadata>
<g transform="translate(0.000000,400.000000) scale(0.100000,-0.100000)"
fill="#000000" stroke="none">
<path d="M1844 3775 c-20 -20 -21 -32 -22 -156 0 -74 -1 -150 -1 -170 l-1 -36
-91 -17 c-171 -31 -355 -107 -515 -211 l-86 -56 -25 23 c-14 13 -69 67 -123
121 -54 53 -106 97 -115 97 -28 0 -56 -20 -135 -100 -80 -80 -100 -107 -100
-135 0 -9 48 -65 108 -124 59 -59 113 -115 120 -124 12 -14 6 -28 -42 -100
-106 -159 -186 -359 -217 -539 -13 -79 14 -70 -211 -70 -189 0 -182 7 -183
-174 -2 -188 -7 -183 181 -183 77 0 153 0 170 0 30 -1 30 -1 47 -90 34 -179
110 -364 212 -517 30 -45 55 -84 55 -87 0 -2 -54 -59 -120 -125 -91 -91 -120
-127 -120 -146 0 -20 25 -51 102 -127 127 -126 125 -126 254 4 50 50 103 103
118 116 l26 24 57 -40 c70 -49 208 -124 283 -154 78 -31 236 -76 295 -83 27
-4 51 -9 53 -11 2 -2 4 -79 4 -171 1 -220 -8 -210 180 -210 181 1 172 -8 175
184 1 81 2 159 2 173 1 24 6 26 89 42 181 35 363 110 520 214 l84 55 35 -33
c19 -19 75 -73 123 -121 65 -65 96 -88 114 -88 37 0 226 190 226 226 0 19 -28
54 -111 137 -61 62 -115 118 -121 124 -7 9 4 33 41 88 104 154 185 349 217
525 l17 90 36 1 c20 0 96 0 169 1 183 0 177 -6 177 178 0 186 7 178 -188 179
-78 0 -154 0 -168 0 -24 1 -26 6 -43 93 -33 176 -110 362 -212 515 -43 65 -53
87 -45 97 7 8 61 63 121 124 82 83 110 117 110 136 0 36 -189 226 -226 226
-19 0 -51 -25 -124 -97 -54 -54 -109 -109 -123 -122 l-26 -23 -84 56 c-165
110 -385 196 -559 221 -43 6 -48 9 -49 33 0 15 -1 91 -1 170 0 193 7 186 -174
187 -129 1 -140 0 -160 -20z"/>
</g>
</svg>
